<svg width="25" height="25" viewBox="0 0 25 25" fill="none" xmlns="http://www.w3.org/2000/svg">
<path fill-rule="evenodd" clip-rule="evenodd" d="M10.8147 0.085597C8.70265 0.428701 7.18727 1.01202 5.44879 2.15111C4.55139 2.73913 2.7388 4.54986 2.13766 5.45891C1.21034 6.86108 0.554521 8.43973 0.1905 10.1458C-0.063304 11.3355 -0.063539 13.6518 0.19003 14.8437C0.703748 17.2581 1.77873 19.3374 3.38765 21.0287C5.62449 23.3801 8.28066 24.6544 11.577 24.9575C14.1615 25.1951 17.1257 24.4253 19.3608 22.9361C22.1877 21.0527 24.0792 18.2427 24.8082 14.8437C25.0639 13.6517 25.0639 11.3378 24.8082 10.1458C23.7085 5.01824 19.9134 1.21693 14.8881 0.209309C13.8113 -0.0065603 11.7648 -0.0687293 10.8147 0.085597ZM12.9275 1.64444C13.8418 2.02622 14.8047 3.61662 15.4272 5.77304C15.685 6.66611 15.882 7.63138 15.8251 7.7233C15.7664 7.81828 9.36583 7.81937 9.21574 7.7244C9.12244 7.66536 9.13921 7.51009 9.32337 6.73126C9.85597 4.47838 10.5888 2.8749 11.4474 2.08385C12.0239 1.55275 12.4237 1.43405 12.9275 1.64444ZM9.44385 2.04345C9.44385 2.06584 9.35447 2.22573 9.24519 2.39869C8.72325 3.22513 7.95917 5.37301 7.68696 6.77894C7.61607 7.14499 7.5411 7.5238 7.52034 7.62065L7.48251 7.79682H5.09941C3.78872 7.79682 2.6983 7.76769 2.67629 7.73207C2.6542 7.69644 2.81275 7.37049 3.02848 7.00781C4.31513 4.84466 6.12168 3.28237 8.4255 2.34044C9.20744 2.02074 9.44385 1.95184 9.44385 2.04345ZM16.4333 2.27944C18.1779 2.95289 19.8941 4.20762 21.0406 5.64769C21.4288 6.13533 22.3691 7.61274 22.3691 7.73512C22.3691 7.76903 21.277 7.79682 19.9422 7.79682H17.5153L17.4778 7.62065C17.4572 7.5238 17.3862 7.1684 17.32 6.83093C17.0486 5.44748 16.5309 3.936 15.9273 2.76552C15.7443 2.41059 15.5825 2.0938 15.5677 2.06146C15.5179 1.95239 15.7139 2.00172 16.4333 2.27944ZM7.26811 9.61726C7.194 9.94948 7.19416 15.0408 7.26834 15.3732L7.32529 15.6287L4.65181 15.6081L1.97833 15.5875L1.83694 15.0003C1.62136 14.1049 1.50856 12.7939 1.56731 11.8683C1.61392 11.1342 1.86952 9.59213 1.97198 9.42637C1.99361 9.39137 3.20685 9.36279 4.6681 9.36279H7.3249L7.26811 9.61726ZM16.1563 9.73471C16.2389 10.2185 16.2389 14.7709 16.1563 15.2548L16.0927 15.6267H12.4989H8.90514L8.84153 15.2548C8.8066 15.0502 8.77801 13.8082 8.77801 12.4947C8.77801 11.1813 8.8066 9.93923 8.84153 9.73471L8.90514 9.36279H12.4989H16.0927L16.1563 9.73471ZM23.1665 9.98918C23.512 11.466 23.5102 13.5716 23.1624 15.0003L23.0195 15.5875L20.3456 15.6081L17.6717 15.6287L17.7291 15.2558C17.8036 14.7717 17.8039 9.94995 17.7295 9.61624L17.6725 9.36076L20.3508 9.38135L23.0292 9.40194L23.1665 9.98918ZM7.51878 17.3688C7.53875 17.4657 7.61309 17.8269 7.68398 18.1714C7.98949 19.6563 8.51182 21.1725 9.0973 22.2741C9.28953 22.6357 9.43233 22.946 9.41471 22.9636C9.36833 23.01 8.07401 22.5006 7.48196 22.2029C5.68332 21.2985 3.8282 19.4924 2.91819 17.7601L2.6202 17.1926H5.05132H7.48251L7.51878 17.3688ZM15.8673 17.2811C15.8673 17.3297 15.7763 17.7749 15.6652 18.2703C15.0637 20.9507 13.8792 23.0653 12.8007 23.3838C11.7931 23.6814 10.5827 22.2925 9.79847 19.939C9.54999 19.1932 9.13302 17.5382 9.13122 17.2905C9.13067 17.2137 9.85605 17.1926 12.4989 17.1926C14.9499 17.1926 15.8673 17.2168 15.8673 17.2811ZM22.0796 17.7601C21.1696 19.4924 19.3145 21.2985 17.5158 22.2029C16.9238 22.5006 15.6295 23.01 15.5831 22.9636C15.5655 22.946 15.7095 22.6338 15.9032 22.2699C16.4094 21.3187 16.832 20.1385 17.1622 18.7532C17.3207 18.0887 17.465 17.4657 17.4829 17.3688L17.5153 17.1926H19.9465H22.3776L22.0796 17.7601Z" fill="white"/>
</svg>
