<svg width="29" height="29" viewBox="0 0 29 29" fill="none" xmlns="http://www.w3.org/2000/svg">
<path fill-rule="evenodd" clip-rule="evenodd" d="M0.962547 0.0342542C0.577125 0.134989 0.263484 0.397046 0.0789785 0.772444C0.00891195 0.914972 -0.0104837 1.06551 0.00498841 1.34653C0.0309042 1.81869 0.205684 2.11947 0.588342 2.35064L0.852032 2.50992L2.42687 2.52803L4.00171 2.5462L4.35575 3.77728C4.55042 4.45442 5.01381 6.05607 5.38542 7.33655C5.75703 8.61702 6.29794 10.4824 6.58749 11.4818C6.87704 12.4812 7.43022 14.3904 7.81686 15.7245L8.51979 18.1503L8.32186 18.6238C7.7332 20.0319 7.73508 21.1254 8.3275 21.929C8.99186 22.8303 10.2149 23.1669 12.1522 22.9817C16.4368 22.5721 21.9504 22.2433 24.5465 22.2427C25.9862 22.2423 26.0481 22.2303 26.3178 21.901C26.6458 21.5004 26.626 21.0074 26.2654 20.5973C25.9591 20.2489 25.8231 20.2333 23.4284 20.2726C21.5553 20.3034 20.3184 20.3608 17.6855 20.5394C16.5908 20.6136 15.4258 20.6994 14.998 20.7373C10.9253 21.0981 10.5832 21.1071 10.1113 20.8663C9.88278 20.7496 9.85736 20.7164 9.84117 20.5129C9.81929 20.2366 9.86565 19.9651 9.95643 19.8385C10.0118 19.7613 10.4124 19.695 12.0693 19.4893C13.1938 19.3496 14.4247 19.1966 14.8046 19.1493C15.1845 19.102 16.2164 18.9737 17.0978 18.8642C17.9791 18.7546 19.4089 18.5761 20.2751 18.4674C21.1412 18.3587 22.6953 18.1664 23.7287 18.04C25.8634 17.7788 26.1224 17.7372 26.3438 17.6195C26.558 17.5057 26.8256 17.1839 26.899 16.9521C26.9506 16.7888 27.164 15.6833 27.7628 12.4755C27.8357 12.0851 28.0473 10.9608 28.233 9.977C28.4188 8.99322 28.6301 7.8689 28.7025 7.47851C28.775 7.08812 28.8729 6.56429 28.92 6.31444C29.0323 5.7194 29.0267 5.34514 28.9012 5.06116C28.7787 4.78394 28.4699 4.50911 28.1812 4.42018C28.0267 4.37266 25.1924 4.35539 17.5271 4.35539H7.08354L6.55384 2.52956C5.97662 0.539914 5.92241 0.422088 5.46112 0.153387L5.21738 0.011427L3.17285 0.0012059C2.04836 -0.00447249 1.05372 0.0104617 0.962547 0.0342542ZM7.84211 6.91084C7.84211 6.96603 8.04563 7.68616 8.66739 9.83135C8.82073 10.3602 8.97091 10.8087 9.00125 10.828C9.03153 10.8472 10.1197 10.8613 11.4193 10.8593L13.7823 10.8557V8.86897V6.88228L10.8122 6.86757C8.81923 6.85775 7.84211 6.87194 7.84211 6.91084ZM14.9703 8.84075V10.8288L15.4262 10.8383C16.6166 10.8632 19.8493 10.8535 19.8943 10.825C19.924 10.8061 19.9389 9.98103 19.9304 8.83751L19.9159 6.88228L17.4431 6.86751L14.9703 6.85269V8.84075ZM21.1039 8.83751C21.1039 10.6781 21.1109 10.8231 21.2006 10.8494C21.3386 10.8896 25.5085 10.8642 25.5488 10.8228C25.5814 10.7893 26.2968 7.06569 26.2977 6.92486C26.298 6.8691 25.7421 6.85388 23.701 6.85388H21.1039V8.83751ZM9.33407 12.1076C9.33407 12.141 10.291 15.4553 10.5838 16.4362C10.7658 17.0457 10.7814 17.0749 10.9246 17.0742C11.1687 17.0728 13.6943 16.7442 13.7546 16.7059C13.79 16.6834 13.8099 15.8455 13.8099 14.3744V12.078H11.572C10.3411 12.078 9.33407 12.0913 9.33407 12.1076ZM14.9703 14.321C14.9703 16.4192 14.9766 16.5639 15.067 16.5641C15.2095 16.5643 19.7934 15.9947 19.8744 15.9667C19.9279 15.9483 19.9435 15.5058 19.9435 14.0104V12.078H17.4569H14.9703V14.321ZM21.1039 13.9569V15.8357L21.3111 15.8026C21.4251 15.7845 22.1524 15.6926 22.9274 15.5986C23.7024 15.5046 24.4263 15.4134 24.5362 15.3959C24.7346 15.3643 24.7363 15.3617 24.7983 14.9845C24.8327 14.7757 24.9689 14.0364 25.1011 13.3414L25.3415 12.078H23.2227H21.1039V13.9569ZM9.20687 24.0616C7.51538 24.4964 6.78371 26.5905 7.82924 28.0045C8.64147 29.1031 10.1669 29.3266 11.2209 28.5017C11.8807 27.9853 12.1798 27.3612 12.1798 26.5011C12.1798 25.8807 12.0911 25.58 11.759 25.074C11.5027 24.6834 11.2306 24.4559 10.7356 24.2178C10.4179 24.065 10.2838 24.0341 9.88758 24.022C9.62876 24.0141 9.32241 24.0319 9.20687 24.0616ZM22.9288 24.09C21.8869 24.3902 21.1592 25.3796 21.1592 26.4959C21.1592 28.4909 23.2794 29.6707 24.9229 28.5902C25.3045 28.3394 25.577 28.0028 25.8124 27.4916C25.9799 27.1279 25.9939 27.0534 25.9941 26.5295C25.9942 26.057 25.971 25.9015 25.8561 25.6034C25.6013 24.9425 25.0398 24.3744 24.4072 24.1372C24.0625 24.0081 23.2978 23.9836 22.9288 24.09Z" fill="white"/>
</svg>
