<svg width="29" height="28" viewBox="0 0 29 28" fill="none" xmlns="http://www.w3.org/2000/svg">
<path fill-rule="evenodd" clip-rule="evenodd" d="M27.7605 0.0885486C27.6254 0.135301 27.4961 0.203357 27.4732 0.239778C27.4503 0.276199 27.4312 0.285655 27.4307 0.260849C27.4295 0.202248 27.1318 0.396961 27.0717 0.495485C27.0464 0.537043 27.0025 0.556362 26.9743 0.538385C26.946 0.520408 26.8903 0.559281 26.8506 0.62471C26.8109 0.690198 26.7554 0.743721 26.7274 0.743721C26.6993 0.743721 26.6437 0.789656 26.6038 0.845864C26.5638 0.902071 26.5045 0.948006 26.4721 0.948006C26.4396 0.948006 26.329 1.03246 26.2263 1.13577C25.5142 1.85229 24.9333 2.45376 24.9333 2.47484C24.9333 2.48855 24.7163 2.72453 24.4511 2.99921C24.1858 3.27394 23.9688 3.52492 23.9688 3.55696C23.9688 3.58901 23.8986 3.68677 23.8128 3.77421C23.5349 4.05735 23.2312 4.44695 23.2312 4.52032C23.2312 4.55966 23.1801 4.61995 23.1177 4.65433C23.0553 4.68871 23.0042 4.7553 23.0042 4.80229C23.0042 4.84933 22.9795 4.8878 22.9493 4.8878C22.8837 4.8878 22.4042 5.53982 22.4235 5.60279C22.4308 5.62684 22.4143 5.64657 22.3868 5.64657C22.3275 5.64657 21.6425 6.60338 21.6425 6.68621C21.6425 6.71749 21.6029 6.7587 21.5545 6.77779C21.4603 6.81502 21.4925 6.87911 21.7134 7.09367C21.768 7.14667 21.8127 7.21828 21.8127 7.25278C21.8127 7.28727 21.8883 7.37996 21.9806 7.4587C22.0728 7.53744 22.1494 7.63625 22.1508 7.67828C22.1521 7.7203 22.1787 7.73845 22.2099 7.71861C22.2411 7.69876 22.2666 7.71715 22.2666 7.75952C22.2666 7.80184 22.3564 7.91501 22.4661 8.01103C22.5758 8.10698 22.7608 8.27105 22.8774 8.37565C22.994 8.48018 23.1367 8.58127 23.1945 8.60036C23.2523 8.61939 23.3894 8.69766 23.4991 8.77424C23.6088 8.85082 23.7211 8.89914 23.7486 8.88169C23.776 8.86418 23.7986 8.87924 23.7986 8.91514C23.7986 8.95103 23.8219 8.96556 23.8505 8.94741C23.879 8.92926 23.9113 8.94198 23.9222 8.97572C23.9332 9.00946 23.9991 9.0415 24.0689 9.04687C24.1387 9.0523 24.1957 9.0774 24.1957 9.10267C24.1957 9.12794 24.2149 9.143 24.2383 9.13623C24.2617 9.1294 24.3388 9.15689 24.4097 9.19728C24.4806 9.23767 24.5635 9.25483 24.5941 9.2354C24.6246 9.21596 24.6496 9.22145 24.6496 9.2476C24.6496 9.27374 24.7454 9.32598 24.8624 9.36363C25.037 9.41984 25.0832 9.41739 25.1199 9.34997C25.1445 9.3048 25.1611 9.25168 25.1569 9.23195C25.1527 9.21222 25.2203 9.11971 25.3072 9.02644C25.3941 8.93311 25.4466 8.85677 25.424 8.85677C25.4013 8.85677 25.409 8.82391 25.441 8.78381C25.6151 8.56569 25.8929 8.15636 25.8669 8.15636C25.8503 8.15636 25.8879 8.09986 25.9504 8.03081C26.013 7.96171 26.0508 7.88291 26.0344 7.85571C26.018 7.82845 26.0332 7.80616 26.0681 7.80616C26.103 7.80616 26.1178 7.7834 26.1012 7.75561C26.0844 7.72777 26.1213 7.65802 26.1829 7.60065C26.2446 7.54321 26.295 7.46092 26.295 7.41772C26.295 7.37453 26.3206 7.33922 26.3518 7.33922C26.383 7.33922 26.4085 7.30385 26.4085 7.2606C26.4085 7.21735 26.4603 7.12058 26.5235 7.04557C26.5868 6.97051 26.6534 6.84829 26.6716 6.77399C26.6897 6.69963 26.7273 6.63881 26.7551 6.63881C26.7829 6.63881 26.8057 6.60805 26.8057 6.57047C26.8057 6.53288 26.8459 6.45636 26.8951 6.40044C26.9442 6.34458 26.9896 6.26293 26.9959 6.21898C27.0022 6.17503 27.0768 6.01703 27.1618 5.86784C27.2468 5.71865 27.3163 5.57128 27.3163 5.54028C27.3163 5.50929 27.3583 5.46738 27.4095 5.44713C27.4608 5.42693 27.4872 5.39431 27.4682 5.37475C27.4491 5.35514 27.4834 5.27389 27.5444 5.19417C27.6053 5.11444 27.6413 5.02601 27.6242 4.99764C27.6072 4.96933 27.6219 4.94616 27.6568 4.94616C27.6916 4.94616 27.7044 4.9199 27.6851 4.8878C27.6658 4.85569 27.674 4.82943 27.7033 4.82943C27.7598 4.82943 27.92 4.4801 27.8972 4.40627C27.8898 4.38222 27.9108 4.36249 27.9438 4.36249C27.9768 4.36249 27.9893 4.33833 27.9716 4.30885C27.9539 4.27932 27.9798 4.21365 28.0291 4.16293C28.0784 4.11215 28.1021 4.07065 28.0817 4.07065C28.0613 4.07065 28.096 3.98526 28.1586 3.88096C28.2213 3.77666 28.2775 3.665 28.2835 3.6329C28.2896 3.6008 28.3187 3.50887 28.3484 3.42861C28.3781 3.34836 28.4018 3.26956 28.4011 3.25351C28.4004 3.23746 28.4375 3.1652 28.4835 3.093C28.5296 3.02074 28.5509 2.96168 28.531 2.96168C28.5111 2.96168 28.537 2.89525 28.5888 2.81412C28.6405 2.73294 28.6674 2.64101 28.6487 2.60984C28.6299 2.57861 28.6396 2.55311 28.6702 2.55311C28.7187 2.55311 28.8108 2.28351 28.8198 2.11535C28.8215 2.08325 28.8439 2.02243 28.8696 1.98011C28.8953 1.93786 28.9012 1.88778 28.8828 1.86875C28.8644 1.84978 28.8768 1.80011 28.9104 1.75838C28.9802 1.67194 29.034 0.698895 28.9743 0.602706C28.9528 0.567919 28.9326 0.526303 28.9295 0.510252C28.8408 0.0502597 28.3659 -0.121107 27.7605 0.0885486ZM1.54309 2.8506C1.48845 2.88276 1.4438 2.89374 1.4438 2.875C1.4438 2.85621 1.38638 2.87366 1.31614 2.91376C1.19091 2.98532 1.15676 2.99804 1.05066 3.01275C1.02166 3.01678 0.84555 3.17104 0.659336 3.35566C0.33088 3.68123 0.134056 3.99548 0.0422538 4.34084C-0.00801609 4.53006 -0.0165268 22.4634 0.0335729 22.6898C0.151872 23.2246 0.786032 23.9703 1.22757 24.0939C1.36209 24.1315 1.51046 24.1744 1.55727 24.1893C1.60408 24.204 3.72773 24.2131 6.27645 24.2094L10.9105 24.2026L10.9308 24.3363C10.9576 24.5121 10.7307 25.2849 10.6184 25.4004C10.5701 25.4501 10.484 25.55 10.427 25.6225C10.2635 25.83 9.7474 26.2512 9.70717 26.2098C9.6872 26.1892 9.67081 26.2004 9.67081 26.2347C9.67081 26.2689 9.53673 26.3278 9.37293 26.3657C9.20913 26.4035 9.03676 26.4488 8.98995 26.4665C8.89463 26.5025 8.67369 26.5394 8.5188 26.5451C8.46251 26.5471 8.40243 26.5865 8.38524 26.6326C8.36799 26.6787 8.33377 26.7037 8.30909 26.688C8.24055 26.6444 8.18535 26.8279 8.15499 27.2003C8.12538 27.5631 8.23193 27.8999 8.39698 27.965C8.44561 27.9842 10.7961 27.9999 13.6203 27.9999L18.7552 28L18.8888 27.8626C19.0048 27.7432 19.0221 27.6698 19.0207 27.3036C19.0191 26.9281 19.0026 26.8648 18.8697 26.7256C18.7876 26.6396 18.6567 26.5629 18.5787 26.5551C18.4019 26.5374 18.291 26.512 18.1815 26.464C18.1347 26.4435 18.0326 26.4198 17.9546 26.4114C17.8765 26.403 17.7977 26.3751 17.7792 26.3494C17.7608 26.3238 17.6906 26.2985 17.6232 26.2932C17.5558 26.288 17.5007 26.263 17.5007 26.2378C17.5007 26.2125 17.4658 26.1918 17.4233 26.1918C17.3806 26.1918 17.2594 26.1135 17.1538 26.0177C17.0481 25.9219 16.9315 25.8431 16.8945 25.8426C16.8576 25.842 16.8132 25.7956 16.7959 25.7395C16.7785 25.6833 16.6992 25.5651 16.6196 25.4768C16.5399 25.3886 16.4903 25.3163 16.5093 25.3163C16.5283 25.3163 16.4893 25.2375 16.4226 25.1412C16.356 25.0449 16.3136 24.9661 16.3285 24.9661C16.3434 24.9661 16.3246 24.8414 16.2868 24.6889C16.1535 24.1514 15.6556 24.2041 20.8952 24.2012C26.0676 24.1982 25.7844 24.2026 25.7844 24.1267C25.7844 24.0962 25.7993 24.0865 25.8176 24.1053C25.8636 24.1527 26.1816 24.0329 26.1816 23.9682C26.1816 23.9392 26.2071 23.9155 26.2383 23.9155C26.3269 23.9155 26.9192 23.2786 26.9192 23.1834C26.9192 23.1366 26.9426 23.0984 26.9714 23.0984C27.0001 23.0984 27.0431 23.013 27.0668 22.9087C27.0906 22.8044 27.1232 22.6796 27.1392 22.6314C27.1794 22.5113 27.2036 8.28051 27.1635 8.38983C27.1458 8.43798 27.0924 8.52332 27.0448 8.57952C26.9972 8.63567 26.9814 8.68248 27.0097 8.68353C27.0379 8.68453 27.0114 8.72393 26.9509 8.77109C26.8903 8.81819 26.8619 8.85677 26.8877 8.85677C26.9135 8.85677 26.8677 8.92558 26.7859 9.00975C26.7042 9.09386 26.6512 9.18596 26.6683 9.21444C26.6854 9.24287 26.6596 9.28186 26.611 9.30106C26.5624 9.32026 26.5358 9.35785 26.5519 9.38458C26.5679 9.41137 26.5485 9.45457 26.5087 9.48066C26.4346 9.5291 25.9546 10.1715 25.9546 10.2223C25.9546 10.2377 25.878 10.3367 25.7844 10.4421C25.6908 10.5476 25.6142 10.661 25.6142 10.6943C25.6142 10.7276 25.5631 10.7876 25.5007 10.8277C25.3889 10.8995 25.3872 10.9638 25.3872 15.079C25.3872 18.9217 25.3794 19.2709 25.2899 19.4268L25.1926 19.5963H13.6612C5.0748 19.5963 2.09333 19.5792 1.98644 19.529C1.89254 19.485 1.83194 19.3992 1.8114 19.281C1.7941 19.1816 1.78729 15.8906 1.79625 11.9677C1.80947 6.21092 1.82683 4.82062 1.88635 4.75939C1.94615 4.69781 3.80761 4.68065 11.7445 4.66845C20.8897 4.65433 21.5363 4.6468 21.6424 4.55329C21.7049 4.49831 21.756 4.41887 21.756 4.37685C21.756 4.33482 21.7943 4.28533 21.8411 4.26688C21.8879 4.24838 21.9262 4.20251 21.9262 4.16486C21.9262 4.12721 21.9773 4.05857 22.0397 4.01229C22.1021 3.966 22.1532 3.91079 22.1532 3.88954C22.1532 3.86835 22.2663 3.72424 22.4046 3.56934C22.5428 3.41437 22.6442 3.26816 22.6299 3.24435C22.6156 3.22048 22.6521 3.17448 22.7109 3.14209C22.7698 3.1097 22.8607 3.01602 22.9129 2.93401L23.0079 2.78488L12.3252 2.7885C5.2971 2.79084 1.60839 2.81214 1.54309 2.8506ZM6.46658 6.68288L6.32326 6.84193V8.40647V9.97106L6.46255 10.1143L6.60179 10.2576H12.277C17.4596 10.2576 17.9733 10.2491 18.1946 10.1595C18.3278 10.1055 18.4496 10.0464 18.4652 10.0281C18.4808 10.0099 18.5222 9.9895 18.5572 9.98285C18.5922 9.97619 18.6911 9.95763 18.7769 9.94164C19.0036 9.89932 18.995 9.9194 19.0413 9.32371C19.045 9.27555 19.0737 9.20271 19.1051 9.1618C19.1365 9.12088 19.1461 9.07074 19.1263 9.05043C19.1065 9.03006 19.1151 8.98267 19.1454 8.94514C19.1757 8.90755 19.2096 8.8263 19.2207 8.76466C19.2317 8.70297 19.2684 8.58682 19.3023 8.50657C19.3648 8.35825 19.4098 8.22103 19.4221 8.14154C19.4363 8.04932 19.7388 7.48315 19.7956 7.44224C19.8329 7.41551 19.8339 7.3987 19.7985 7.39759C19.7648 7.39654 19.7668 7.37838 19.8035 7.35294C19.8373 7.32936 19.9374 7.17871 20.0258 7.0182C20.1142 6.85769 20.2246 6.6802 20.2712 6.62375C20.352 6.52599 20.0346 6.52126 13.4829 6.52255L6.6099 6.52389L6.46658 6.68288ZM20.7557 8.11265C20.7318 8.18485 20.7173 8.26364 20.7235 8.28769C20.7297 8.31174 20.7077 8.33146 20.6746 8.33146C20.6416 8.33146 20.6303 8.35773 20.6496 8.38983C20.6689 8.42193 20.6604 8.4482 20.6307 8.4482C20.5822 8.4482 20.497 8.68348 20.5116 8.77704C20.5148 8.79764 20.4913 8.83114 20.4593 8.85146C20.4274 8.87183 20.3894 8.95354 20.3749 9.0331C20.3279 9.29114 20.2721 9.52601 20.2365 9.61554C20.1866 9.74121 20.1633 9.98927 20.1528 10.5076C20.1423 11.0255 20.1818 10.9918 19.5242 11.0435C19.3108 11.0603 19.1131 11.0888 19.0847 11.1069C19.0562 11.1249 18.9754 11.1504 18.9051 11.1636C18.7171 11.1986 18.1248 11.4964 18.1248 11.5558C18.1248 11.5839 18.1004 11.5914 18.0705 11.5724C18.0407 11.5535 17.9739 11.6045 17.9222 11.6857C17.8704 11.767 17.7884 11.8335 17.74 11.8335C17.6916 11.8335 17.6681 11.8501 17.6878 11.8704C17.7076 11.8908 17.6605 11.9585 17.5833 12.021C17.506 12.0835 17.455 12.1549 17.4698 12.1796C17.4846 12.2042 17.4465 12.2798 17.3852 12.3475C17.3239 12.4152 17.2737 12.4945 17.2737 12.5236C17.2737 12.5527 17.2241 12.6414 17.1634 12.7208C17.1027 12.8001 17.041 12.9415 17.0262 13.035C17.0115 13.1286 16.9953 13.2051 16.9905 13.2051C16.9249 13.2051 16.8882 14.2473 16.9297 14.927C16.9481 15.228 16.9124 15.5788 16.8534 15.677C16.8313 15.7139 16.8291 15.7441 16.8487 15.7441C16.8682 15.7441 16.8297 15.8229 16.7631 15.9192C16.6964 16.0155 16.6598 16.0943 16.6817 16.0943C16.7037 16.0943 16.653 16.1498 16.5691 16.2177C16.4853 16.2856 16.4295 16.3543 16.4453 16.3706C16.478 16.4042 16.3385 16.5612 16.276 16.5612C16.2533 16.5612 16.1494 16.6283 16.045 16.7101C15.7958 16.9057 15.7876 17.1299 16.0232 17.309C16.1155 17.3793 16.2368 17.4441 16.2927 17.453C16.3485 17.462 16.4289 17.4915 16.4711 17.5186C16.5135 17.5458 16.6411 17.5792 16.7548 17.5931C16.8686 17.6068 17.0255 17.6415 17.1035 17.67C17.1815 17.6986 17.4624 17.7105 17.7276 17.6963C17.9929 17.6822 18.2597 17.6693 18.3207 17.6677C18.3817 17.6661 18.462 17.6388 18.4992 17.6071C18.5363 17.5754 18.5885 17.5534 18.6153 17.5583C18.6419 17.5633 18.6765 17.5622 18.6921 17.5559C18.7078 17.5497 18.7637 17.536 18.8164 17.5255C19.0411 17.4809 19.3163 17.3653 19.3163 17.3155C19.3163 17.2859 19.3354 17.2645 19.3588 17.268C19.4473 17.2811 19.6567 17.1874 19.6567 17.1346C19.6567 17.1044 19.6822 17.0959 19.7134 17.1157C19.7446 17.1356 19.7702 17.124 19.7702 17.09C19.7702 17.056 19.8085 17.0282 19.8553 17.0282C19.9021 17.0282 19.9404 17.0003 19.9404 16.9664C19.9404 16.9324 19.9615 16.918 19.9874 16.9344C20.0132 16.9509 20.117 16.8868 20.2178 16.792C20.3188 16.6972 20.4155 16.6196 20.4329 16.6196C20.4868 16.6196 21.1886 15.8631 21.1886 15.8049C21.1886 15.7746 21.2333 15.7231 21.2879 15.6904C21.3425 15.6577 21.3652 15.6301 21.3384 15.6291C21.3115 15.6282 21.3448 15.5814 21.4122 15.5252C21.4797 15.4689 21.5419 15.3836 21.5505 15.3355C21.5696 15.2278 21.8275 14.6753 21.8774 14.6351C21.9321 14.5911 22.0393 14.1565 22.0083 14.1047C21.9933 14.0799 22.0032 14.0454 22.0303 14.0283C22.0722 14.0016 22.0814 13.0845 22.0405 13.0008C22.0327 12.9848 22.0296 12.951 22.0337 12.9257C22.0378 12.9005 21.9769 12.7355 21.8985 12.5592C21.8202 12.3829 21.756 12.2256 21.756 12.2097C21.756 12.1729 22.054 12.045 22.1106 12.0576C22.134 12.0627 22.1532 12.0363 22.1532 11.9989C22.1532 11.9614 22.1691 11.9471 22.1885 11.9672C22.2238 12.0035 22.9504 11.6257 23.0042 11.5431C23.0198 11.5192 23.1143 11.4565 23.2142 11.4039C23.3141 11.3512 23.5477 11.1524 23.7334 10.962C23.9191 10.7715 24.0863 10.6314 24.105 10.6507C24.1237 10.6699 24.139 10.6432 24.139 10.5912C24.139 10.5393 24.1837 10.4673 24.2383 10.4312C24.3329 10.3687 24.3329 10.367 24.2383 10.3973C24.1837 10.4147 24.139 10.3992 24.139 10.3628C24.139 10.3263 24.1242 10.3116 24.1063 10.3302C24.0882 10.3488 23.9287 10.298 23.7516 10.2175C23.5746 10.1369 23.417 10.0705 23.4014 10.0698C23.3858 10.0691 23.3139 10.0454 23.2417 10.0171C23.1695 9.98886 23.0948 9.96575 23.076 9.96575C23.057 9.96575 22.9971 9.92436 22.9427 9.87376C22.8884 9.82321 22.8064 9.77617 22.7606 9.76922C22.7147 9.76228 22.5848 9.68418 22.4719 9.59558C22.359 9.50698 22.2666 9.44791 22.2666 9.46437C22.2666 9.49904 22.0354 9.29318 21.6334 8.90054C21.4773 8.74803 21.3656 8.6233 21.3853 8.6233C21.405 8.6233 21.3305 8.52734 21.2197 8.41008C21.109 8.29277 21.0184 8.17551 21.0184 8.14947C21.0184 8.12344 20.969 8.07494 20.9087 8.04173C20.8182 7.99188 20.7915 8.0042 20.7557 8.11265ZM6.46392 11.3333L6.32326 11.478L6.32389 14.2969C6.32423 15.8472 6.34051 17.2154 6.36009 17.3373C6.42159 17.7202 6.4507 17.7251 8.64748 17.7254L10.5867 17.7256L10.7225 17.5859L10.8584 17.4461L10.8613 14.4765L10.8641 11.5069L10.7071 11.3521L10.55 11.1974L8.57729 11.193L6.60451 11.1887L6.46392 11.3333ZM11.838 11.2668C11.8074 11.3056 11.7861 11.5081 11.7905 11.7168L11.7985 12.0962L13.8694 12.113C15.9262 12.1298 16.2316 12.1156 16.1663 12.0069C16.1476 11.9757 16.1531 11.9502 16.1787 11.9502C16.2042 11.9502 16.2587 11.895 16.2997 11.8274C16.3615 11.7256 16.3614 11.7125 16.2992 11.7509C16.2229 11.7978 16.428 11.5482 16.6041 11.3796C16.6571 11.3289 16.6873 11.2653 16.671 11.2383C16.6214 11.1557 11.9036 11.1836 11.838 11.2668ZM11.8056 13.1057C11.7921 13.1283 11.785 13.3306 11.7897 13.5553L11.7985 13.9639L13.7559 13.9791L15.7134 13.9944L15.719 13.7165C15.722 13.5636 15.7433 13.3527 15.7663 13.2476L15.8081 13.0566L13.8191 13.0607C12.7252 13.0629 11.8191 13.0832 11.8056 13.1057ZM11.943 14.9824C11.8977 15.0119 11.8449 15.026 11.8258 15.0139C11.76 14.972 11.764 15.5295 11.8307 15.6951L11.8974 15.8608H13.5642C14.6377 15.8608 15.2311 15.8401 15.2311 15.8025C15.2311 15.7704 15.2646 15.7441 15.3055 15.7441C15.4146 15.7441 15.6975 15.4394 15.7276 15.2895C15.8055 14.901 15.9372 14.9268 13.8836 14.9278C12.8538 14.9284 11.9887 14.9526 11.943 14.9824ZM11.848 16.8768C11.8128 16.9169 11.7873 17.1175 11.7913 17.3245L11.7985 17.6994L13.3162 17.7149C14.2283 17.7243 14.834 17.7087 14.834 17.6761C14.834 17.6461 14.8046 17.6115 14.7687 17.5992C14.7284 17.5854 14.7027 17.4266 14.7015 17.1841L14.6997 16.7913L13.3058 16.7978C12.2726 16.8025 11.8954 16.823 11.848 16.8768ZM13.3658 20.9369C12.8459 21.0687 12.4507 21.7324 12.6197 22.1897C12.6502 22.2722 12.6581 22.3396 12.6373 22.3396C12.6165 22.3396 12.649 22.3809 12.7096 22.4315C12.7702 22.482 12.7815 22.5039 12.7347 22.4801C12.6878 22.4563 12.7389 22.5296 12.8481 22.6431C12.9574 22.7566 13.0572 22.84 13.0699 22.8285C13.0826 22.817 13.1261 22.8358 13.1665 22.8703C13.2542 22.9451 13.726 22.9609 13.9262 22.8958C14.1655 22.8179 14.3613 22.644 14.4664 22.4163C14.5818 22.1661 14.5971 21.6216 14.4924 21.4919C14.4542 21.4445 14.4408 21.4057 14.4626 21.4057C14.4844 21.4057 14.419 21.3204 14.3171 21.216C14.2153 21.1117 14.1112 21.0329 14.0858 21.0409C14.0604 21.0489 14.0396 21.0336 14.0396 21.0069C14.0396 20.9801 14.0077 20.9564 13.9687 20.9542C13.9297 20.952 13.8212 20.9362 13.7276 20.9192C13.634 20.9021 13.4711 20.9101 13.3658 20.9369Z" fill="white"/>
</svg>
