<svg width="22" height="29" viewBox="0 0 22 29" fill="none" xmlns="http://www.w3.org/2000/svg">
<path fill-rule="evenodd" clip-rule="evenodd" d="M2.85263 1.01486L2.11374 1.03049L1.8961 1.13512C1.74363 1.20841 1.60613 1.30628 1.43678 1.46209C1.15698 1.71954 1.12721 1.78613 1.08019 2.25998C1.02768 2.78948 0.999943 7.04426 1 14.5635C1.00009 22.0764 1.02734 26.2262 1.08014 26.7567C1.12712 27.2292 1.15758 27.2979 1.43148 27.549C1.58503 27.6898 1.74771 27.8068 1.89579 27.8829L2.12369 28H11.0173H19.9108L20.1303 27.8829C20.2756 27.8053 20.4326 27.6866 20.5953 27.5314C20.8624 27.2767 20.8789 27.2443 20.9334 26.8652C20.9927 26.4523 21.0097 23.5127 20.9951 16.1621L20.98 8.61007L20.8449 8.33445C20.6253 7.88656 20.4829 7.73935 17.0911 4.45329C14.9151 2.34518 13.907 1.39635 13.6979 1.25986C13.5515 1.16428 13.2924 1.0822 13.006 1.04072C12.7629 1.00547 4.31261 0.983967 2.85263 1.01486ZM2.76918 2.09287C2.41024 2.11669 2.23979 2.17107 2.18979 2.27768C2.1288 2.40777 2.10475 5.88318 2.10492 14.5359C2.10512 23.0062 2.12891 26.6251 2.18506 26.7271C2.20182 26.7575 2.2631 26.8109 2.32128 26.8459C2.42419 26.9077 2.45255 26.91 3.36376 26.9288C4.57814 26.9539 17.3936 26.9539 18.6356 26.9288C19.562 26.9101 19.5889 26.908 19.6922 26.846C19.7505 26.811 19.8132 26.7555 19.8316 26.7228C19.8991 26.6024 19.9148 24.2035 19.8977 16.5787L19.8805 8.86458L19.8071 8.74289C19.6697 8.51501 19.0727 7.91578 16.3248 5.24749C14.0653 3.05352 13.1697 2.21495 13.0201 2.15326C12.9474 2.12325 12.7318 2.10624 12.212 2.08951C11.3383 2.0614 3.19995 2.06429 2.76918 2.09287ZM7.09358 12.9825C6.07731 13.145 5.11079 13.8586 4.65496 14.7829C4.42473 15.2498 4.40179 15.3555 4.36776 16.107C4.3269 17.009 4.35228 22.4497 4.39867 22.7325C4.4855 23.2618 4.81682 23.8782 5.25051 24.3173C5.7763 24.8496 6.49044 25.2096 7.14292 25.2713C7.51689 25.3067 14.5409 25.3063 14.8866 25.2709C15.1837 25.2405 15.4714 25.1548 15.8105 24.996C16.6458 24.6045 17.2234 23.9571 17.5293 23.0697C17.6088 22.8388 17.6211 22.7592 17.6437 22.3255C17.6768 21.6891 17.6764 16.4241 17.6431 15.8724C17.6227 15.5349 17.6013 15.3957 17.5414 15.2109C17.3524 14.6287 16.9607 14.0639 16.4915 13.697C16.0855 13.3795 15.8101 13.2325 15.3029 13.0625L14.9705 12.9511L11.11 12.9543C8.95824 12.9561 7.18053 12.9686 7.09358 12.9825ZM7.98682 14.0551C7.06412 14.0722 7.01577 14.0808 6.58316 14.3062C6.19788 14.5069 5.91876 14.7863 5.7066 15.1836C5.53317 15.5084 5.50578 15.634 5.49021 16.1759C5.48261 16.4411 5.47084 16.7772 5.46409 16.9227L5.45181 17.1871L7.22972 17.2062L9.00767 17.2254L9.16947 17.3966L9.3313 17.5677L9.33252 20.8959L9.33377 24.224H11.0068H12.6799V19.1233V14.0226L10.7445 14.0312C9.68006 14.0359 8.43911 14.0467 7.98682 14.0551ZM13.7858 15.6108V17.1957H15.1761H16.5665L16.551 16.7478C16.5183 15.7991 16.5069 15.6545 16.4513 15.4804C16.3657 15.2126 16.1569 14.8922 15.9153 14.6576C15.4508 14.2069 14.9286 14.026 14.0914 14.026H13.7858V15.6108ZM5.48905 18.3234C5.48255 18.3297 5.47725 18.8165 5.47725 19.4052V20.4755H6.85255H8.22785V19.4011V18.3268L6.86435 18.3193C6.11443 18.3153 5.49554 18.3171 5.48905 18.3234ZM13.8212 18.3143C13.7937 18.3267 13.7858 18.5717 13.7858 19.4029V20.4755H15.1611H16.5364V19.4006V18.3257H15.5767C15.0489 18.3257 14.446 18.3196 14.2369 18.312C14.0278 18.3045 13.8407 18.3055 13.8212 18.3143ZM5.4688 21.5436C5.4477 21.5805 5.5005 22.5252 5.5309 22.6552C5.65839 23.2005 6.12373 23.7388 6.71786 24.0282C6.97287 24.1524 7.18594 24.1909 7.7387 24.2128L8.22785 24.2321V22.8775V21.5229H6.85422C6.09872 21.5229 5.47529 21.5322 5.4688 21.5436ZM13.7858 22.8775V24.2321L14.2744 24.2123C14.9082 24.1867 14.9903 24.1703 15.3454 23.9985C15.6027 23.8739 15.6779 23.8204 15.8984 23.6049C16.267 23.2446 16.4542 22.9074 16.5057 22.5113C16.5203 22.3997 16.5392 22.1317 16.5479 21.9157L16.5637 21.5229H15.1747H13.7858V22.8775Z" fill="white" stroke="white" stroke-width="0.5"/>
</svg>
